<?xml version="1.0" encoding="utf-8" standalone="no"?>
<!DOCTYPE svg PUBLIC "-//W3C//DTD SVG 1.1//EN"
  "http://www.w3.org/Graphics/SVG/1.1/DTD/svg11.dtd">
<!-- Created with matplotlib (http://matplotlib.org/) -->
<svg height="360pt" version="1.1" viewBox="0 0 720 360" width="720pt" xmlns="http://www.w3.org/2000/svg" xmlns:xlink="http://www.w3.org/1999/xlink">
 <defs>
  <style type="text/css">
*{stroke-linecap:butt;stroke-linejoin:round;stroke-miterlimit:100000;}
  </style>
 </defs>
 <g id="figure_1">
  <g id="patch_1">
   <path d="M 0 360 
L 720 360 
L 720 0 
L 0 0 
z
" style="fill:#ffffff;"/>
  </g>
  <g id="axes_1">
   <g id="patch_2">
    <path d="M 90 324 
L 648 324 
L 648 36 
L 90 36 
z
" style="fill:#ffffff;"/>
   </g>
   <g id="line2d_1">
    <path clip-path="url(#pcc80853ad0)" d="M 90 298.08 
L 369 237.6 
L 648 231.84 
" style="fill:none;stroke:#000000;stroke-linecap:square;stroke-width:1.5;"/>
   </g>
   <g id="line2d_2">
    <defs>
     <path d="M -0 3 
L 3 -3 
L -3 -3 
z
" id="m034d3b618d" style="stroke:#000000;stroke-linejoin:miter;stroke-width:0.5;"/>
    </defs>
    <g clip-path="url(#pcc80853ad0)">
     <use style="fill:#0000ff;stroke:#000000;stroke-linejoin:miter;stroke-width:0.5;" x="90.0" xlink:href="#m034d3b618d" y="298.08"/>
     <use style="fill:#0000ff;stroke:#000000;stroke-linejoin:miter;stroke-width:0.5;" x="369.0" xlink:href="#m034d3b618d" y="237.6"/>
     <use style="fill:#0000ff;stroke:#000000;stroke-linejoin:miter;stroke-width:0.5;" x="648.0" xlink:href="#m034d3b618d" y="231.84"/>
    </g>
   </g>
   <g id="line2d_3">
    <path clip-path="url(#pcc80853ad0)" d="M 90 243.36 
L 369 156.96 
L 648 162.72 
" style="fill:none;stroke:#000000;stroke-dasharray:6.000000,6.000000;stroke-dashoffset:0.0;stroke-width:1.5;"/>
   </g>
   <g id="line2d_4">
    <defs>
     <path d="M 0 -3 
L -0.673542 -0.927051 
L -2.85317 -0.927051 
L -1.089814 0.354102 
L -1.763356 2.427051 
L -0 1.145898 
L 1.763356 2.427051 
L 1.089814 0.354102 
L 2.85317 -0.927051 
L 0.673542 -0.927051 
z
" id="mbc4d41a547" style="stroke:#000000;stroke-linejoin:bevel;stroke-width:0.5;"/>
    </defs>
    <g clip-path="url(#pcc80853ad0)">
     <use style="fill:#008000;stroke:#000000;stroke-linejoin:bevel;stroke-width:0.5;" x="90.0" xlink:href="#mbc4d41a547" y="243.36"/>
     <use style="fill:#008000;stroke:#000000;stroke-linejoin:bevel;stroke-width:0.5;" x="369.0" xlink:href="#mbc4d41a547" y="156.96"/>
     <use style="fill:#008000;stroke:#000000;stroke-linejoin:bevel;stroke-width:0.5;" x="648.0" xlink:href="#mbc4d41a547" y="162.72"/>
    </g>
   </g>
   <g id="line2d_5">
    <path clip-path="url(#pcc80853ad0)" d="M 90 102.24 
L 369 47.52 
L 648 44.64 
" style="fill:none;stroke:#ff0000;stroke-linecap:square;stroke-width:1.5;"/>
   </g>
   <g id="line2d_6">
    <defs>
     <path d="M -3 3 
L 3 3 
L 3 -3 
L -3 -3 
z
" id="m095469207c" style="stroke:#000000;stroke-linejoin:miter;stroke-width:0.5;"/>
    </defs>
    <g clip-path="url(#pcc80853ad0)">
     <use style="fill:#ff0000;stroke:#000000;stroke-linejoin:miter;stroke-width:0.5;" x="90.0" xlink:href="#m095469207c" y="102.24"/>
     <use style="fill:#ff0000;stroke:#000000;stroke-linejoin:miter;stroke-width:0.5;" x="369.0" xlink:href="#m095469207c" y="47.52"/>
     <use style="fill:#ff0000;stroke:#000000;stroke-linejoin:miter;stroke-width:0.5;" x="648.0" xlink:href="#m095469207c" y="44.64"/>
    </g>
   </g>
   <g id="patch_3">
    <path d="M 90 324 
L 648 324 
" style="fill:none;stroke:#000000;stroke-linecap:square;stroke-linejoin:miter;"/>
   </g>
   <g id="patch_4">
    <path d="M 90 324 
L 90 36 
" style="fill:none;stroke:#000000;stroke-linecap:square;stroke-linejoin:miter;"/>
   </g>
   <g id="matplotlib.axis_1">
    <g id="xtick_1">
     <g id="line2d_7">
      <path clip-path="url(#pcc80853ad0)" d="M 90 324 
L 90 36 
" style="fill:none;stroke:#000000;stroke-dasharray:6.000000,6.000000;stroke-dashoffset:0.0;stroke-width:0.5;"/>
     </g>
     <g id="line2d_8">
      <defs>
       <path d="M 0 0 
L 0 -4 
" id="m235f0960be" style="stroke:#000000;stroke-width:0.5;"/>
      </defs>
      <g>
       <use style="stroke:#000000;stroke-width:0.5;" x="90.0" xlink:href="#m235f0960be" y="324.0"/>
      </g>
     </g>
     <g id="line2d_9">
      <defs>
       <path d="M 0 0 
L 0 4 
" id="m736a42d56f" style="stroke:#000000;stroke-width:0.5;"/>
      </defs>
      <g>
       <use style="stroke:#000000;stroke-width:0.5;" x="90.0" xlink:href="#m736a42d56f" y="36.0"/>
      </g>
     </g>
     <g id="text_1">
      <!-- 0.1555 -->
      <defs>
       <path d="M 10.59375 72.90625 
L 57.328125 72.90625 
L 57.328125 59.078125 
L 25.59375 59.078125 
L 25.59375 47.796875 
Q 27.734375 48.390625 29.90625 48.703125 
Q 32.078125 49.03125 34.421875 49.03125 
Q 47.75 49.03125 55.171875 42.359375 
Q 62.59375 35.6875 62.59375 23.78125 
Q 62.59375 11.96875 54.515625 5.265625 
Q 46.4375 -1.421875 32.078125 -1.421875 
Q 25.875 -1.421875 19.796875 -0.21875 
Q 13.71875 0.984375 7.71875 3.421875 
L 7.71875 18.21875 
Q 13.671875 14.796875 19.015625 13.078125 
Q 24.359375 11.375 29.109375 11.375 
Q 35.9375 11.375 39.859375 14.71875 
Q 43.796875 18.0625 43.796875 23.78125 
Q 43.796875 29.546875 39.859375 32.859375 
Q 35.9375 36.1875 29.109375 36.1875 
Q 25.046875 36.1875 20.453125 35.125 
Q 15.875 34.078125 10.59375 31.890625 
z
" id="BitstreamVeraSans-Bold-35"/>
       <path d="M 10.203125 18.890625 
L 27.78125 18.890625 
L 27.78125 0 
L 10.203125 0 
z
" id="BitstreamVeraSans-Bold-2e"/>
       <path d="M 11.71875 12.984375 
L 28.328125 12.984375 
L 28.328125 60.109375 
L 11.28125 56.59375 
L 11.28125 69.390625 
L 28.21875 72.90625 
L 46.09375 72.90625 
L 46.09375 12.984375 
L 62.703125 12.984375 
L 62.703125 0 
L 11.71875 0 
z
" id="BitstreamVeraSans-Bold-31"/>
       <path d="M 46 36.53125 
Q 46 50.203125 43.4375 55.78125 
Q 40.875 61.375 34.8125 61.375 
Q 28.765625 61.375 26.171875 55.78125 
Q 23.578125 50.203125 23.578125 36.53125 
Q 23.578125 22.703125 26.171875 17.03125 
Q 28.765625 11.375 34.8125 11.375 
Q 40.828125 11.375 43.40625 17.03125 
Q 46 22.703125 46 36.53125 
M 64.796875 36.375 
Q 64.796875 18.265625 56.984375 8.421875 
Q 49.171875 -1.421875 34.8125 -1.421875 
Q 20.40625 -1.421875 12.59375 8.421875 
Q 4.78125 18.265625 4.78125 36.375 
Q 4.78125 54.546875 12.59375 64.375 
Q 20.40625 74.21875 34.8125 74.21875 
Q 49.171875 74.21875 56.984375 64.375 
Q 64.796875 54.546875 64.796875 36.375 
" id="BitstreamVeraSans-Bold-30"/>
      </defs>
      <g transform="translate(66.8475 337.118125)scale(0.12 -0.12)">
       <use xlink:href="#BitstreamVeraSans-Bold-30"/>
       <use x="69.580078125" xlink:href="#BitstreamVeraSans-Bold-2e"/>
       <use x="107.568359375" xlink:href="#BitstreamVeraSans-Bold-31"/>
       <use x="177.1484375" xlink:href="#BitstreamVeraSans-Bold-35"/>
       <use x="246.728515625" xlink:href="#BitstreamVeraSans-Bold-35"/>
       <use x="316.30859375" xlink:href="#BitstreamVeraSans-Bold-35"/>
      </g>
     </g>
    </g>
    <g id="xtick_2">
     <g id="line2d_10">
      <path clip-path="url(#pcc80853ad0)" d="M 369 324 
L 369 36 
" style="fill:none;stroke:#000000;stroke-dasharray:6.000000,6.000000;stroke-dashoffset:0.0;stroke-width:0.5;"/>
     </g>
     <g id="line2d_11">
      <g>
       <use style="stroke:#000000;stroke-width:0.5;" x="369.0" xlink:href="#m235f0960be" y="324.0"/>
      </g>
     </g>
     <g id="line2d_12">
      <g>
       <use style="stroke:#000000;stroke-width:0.5;" x="369.0" xlink:href="#m736a42d56f" y="36.0"/>
      </g>
     </g>
     <g id="text_2">
      <!-- 0.1556 -->
      <defs>
       <path d="M 36.1875 35.984375 
Q 31.25 35.984375 28.78125 32.78125 
Q 26.3125 29.59375 26.3125 23.1875 
Q 26.3125 16.796875 28.78125 13.59375 
Q 31.25 10.40625 36.1875 10.40625 
Q 41.15625 10.40625 43.625 13.59375 
Q 46.09375 16.796875 46.09375 23.1875 
Q 46.09375 29.59375 43.625 32.78125 
Q 41.15625 35.984375 36.1875 35.984375 
M 59.421875 71 
L 59.421875 57.515625 
Q 54.78125 59.71875 50.671875 60.765625 
Q 46.578125 61.8125 42.671875 61.8125 
Q 34.28125 61.8125 29.59375 57.140625 
Q 24.90625 52.484375 24.125 43.3125 
Q 27.34375 45.703125 31.09375 46.890625 
Q 34.859375 48.09375 39.3125 48.09375 
Q 50.484375 48.09375 57.34375 41.546875 
Q 64.203125 35.015625 64.203125 24.421875 
Q 64.203125 12.703125 56.53125 5.640625 
Q 48.875 -1.421875 35.984375 -1.421875 
Q 21.78125 -1.421875 13.984375 8.171875 
Q 6.203125 17.78125 6.203125 35.40625 
Q 6.203125 53.46875 15.3125 63.796875 
Q 24.421875 74.125 40.28125 74.125 
Q 45.3125 74.125 50.046875 73.34375 
Q 54.78125 72.5625 59.421875 71 
" id="BitstreamVeraSans-Bold-36"/>
      </defs>
      <g transform="translate(345.8475 337.118125)scale(0.12 -0.12)">
       <use xlink:href="#BitstreamVeraSans-Bold-30"/>
       <use x="69.580078125" xlink:href="#BitstreamVeraSans-Bold-2e"/>
       <use x="107.568359375" xlink:href="#BitstreamVeraSans-Bold-31"/>
       <use x="177.1484375" xlink:href="#BitstreamVeraSans-Bold-35"/>
       <use x="246.728515625" xlink:href="#BitstreamVeraSans-Bold-35"/>
       <use x="316.30859375" xlink:href="#BitstreamVeraSans-Bold-36"/>
      </g>
     </g>
    </g>
    <g id="xtick_3">
     <g id="line2d_13">
      <path clip-path="url(#pcc80853ad0)" d="M 648 324 
L 648 36 
" style="fill:none;stroke:#000000;stroke-dasharray:6.000000,6.000000;stroke-dashoffset:0.0;stroke-width:0.5;"/>
     </g>
     <g id="line2d_14">
      <g>
       <use style="stroke:#000000;stroke-width:0.5;" x="648.0" xlink:href="#m235f0960be" y="324.0"/>
      </g>
     </g>
     <g id="line2d_15">
      <g>
       <use style="stroke:#000000;stroke-width:0.5;" x="648.0" xlink:href="#m736a42d56f" y="36.0"/>
      </g>
     </g>
     <g id="text_3">
      <!-- 0.1560 -->
      <g transform="translate(624.8475 337.118125)scale(0.12 -0.12)">
       <use xlink:href="#BitstreamVeraSans-Bold-30"/>
       <use x="69.580078125" xlink:href="#BitstreamVeraSans-Bold-2e"/>
       <use x="107.568359375" xlink:href="#BitstreamVeraSans-Bold-31"/>
       <use x="177.1484375" xlink:href="#BitstreamVeraSans-Bold-35"/>
       <use x="246.728515625" xlink:href="#BitstreamVeraSans-Bold-36"/>
       <use x="316.30859375" xlink:href="#BitstreamVeraSans-Bold-30"/>
      </g>
     </g>
    </g>
    <g id="text_4">
     <!-- epsilon of domain typical -->
     <defs>
      <path d="M 1.21875 54.6875 
L 18.703125 54.6875 
L 33.40625 17.578125 
L 45.90625 54.6875 
L 63.375 54.6875 
L 40.375 -5.171875 
Q 36.921875 -14.3125 32.296875 -17.9375 
Q 27.6875 -21.578125 20.125 -21.578125 
L 10.015625 -21.578125 
L 10.015625 -10.109375 
L 15.484375 -10.109375 
Q 19.921875 -10.109375 21.9375 -8.6875 
Q 23.96875 -7.28125 25.09375 -3.609375 
L 25.59375 -2.09375 
z
" id="BitstreamVeraSans-Bold-79"/>
      <path d="M 8.40625 54.6875 
L 25.875 54.6875 
L 25.875 0 
L 8.40625 0 
z
M 8.40625 75.984375 
L 25.875 75.984375 
L 25.875 61.71875 
L 8.40625 61.71875 
z
" id="BitstreamVeraSans-Bold-69"/>
      <path id="BitstreamVeraSans-Bold-20"/>
      <path d="M 25.875 7.90625 
L 25.875 -20.796875 
L 8.40625 -20.796875 
L 8.40625 54.6875 
L 25.875 54.6875 
L 25.875 46.6875 
Q 29.5 51.46875 33.890625 53.734375 
Q 38.28125 56 44 56 
Q 54.109375 56 60.59375 47.96875 
Q 67.09375 39.9375 67.09375 27.296875 
Q 67.09375 14.65625 60.59375 6.609375 
Q 54.109375 -1.421875 44 -1.421875 
Q 38.28125 -1.421875 33.890625 0.84375 
Q 29.5 3.125 25.875 7.90625 
M 37.5 43.3125 
Q 31.890625 43.3125 28.875 39.1875 
Q 25.875 35.0625 25.875 27.296875 
Q 25.875 19.53125 28.875 15.40625 
Q 31.890625 11.28125 37.5 11.28125 
Q 43.109375 11.28125 46.0625 15.375 
Q 49.03125 19.484375 49.03125 27.296875 
Q 49.03125 35.109375 46.0625 39.203125 
Q 43.109375 43.3125 37.5 43.3125 
" id="BitstreamVeraSans-Bold-70"/>
      <path d="M 51.125 52.984375 
L 51.125 39.703125 
Q 45.515625 42.046875 40.28125 43.21875 
Q 35.0625 44.390625 30.421875 44.390625 
Q 25.4375 44.390625 23.015625 43.140625 
Q 20.609375 41.890625 20.609375 39.3125 
Q 20.609375 37.203125 22.4375 36.078125 
Q 24.265625 34.96875 29 34.421875 
L 32.078125 33.984375 
Q 45.515625 32.28125 50.140625 28.375 
Q 54.78125 24.46875 54.78125 16.109375 
Q 54.78125 7.375 48.328125 2.96875 
Q 41.890625 -1.421875 29.109375 -1.421875 
Q 23.6875 -1.421875 17.890625 -0.5625 
Q 12.109375 0.296875 6 2 
L 6 15.28125 
Q 11.234375 12.75 16.71875 11.46875 
Q 22.21875 10.203125 27.875 10.203125 
Q 33.015625 10.203125 35.59375 11.609375 
Q 38.1875 13.03125 38.1875 15.828125 
Q 38.1875 18.171875 36.40625 19.3125 
Q 34.625 20.453125 29.296875 21.09375 
L 26.21875 21.484375 
Q 14.546875 22.953125 9.859375 26.90625 
Q 5.171875 30.859375 5.171875 38.921875 
Q 5.171875 47.609375 11.125 51.796875 
Q 17.09375 56 29.390625 56 
Q 34.234375 56 39.546875 55.265625 
Q 44.875 54.546875 51.125 52.984375 
" id="BitstreamVeraSans-Bold-73"/>
      <path d="M 32.90625 24.609375 
Q 27.4375 24.609375 24.671875 22.75 
Q 21.921875 20.90625 21.921875 17.28125 
Q 21.921875 13.96875 24.140625 12.078125 
Q 26.375 10.203125 30.328125 10.203125 
Q 35.25 10.203125 38.625 13.734375 
Q 42 17.28125 42 22.609375 
L 42 24.609375 
z
M 59.625 31.203125 
L 59.625 0 
L 42 0 
L 42 8.109375 
Q 38.484375 3.125 34.078125 0.84375 
Q 29.6875 -1.421875 23.390625 -1.421875 
Q 14.890625 -1.421875 9.59375 3.53125 
Q 4.296875 8.5 4.296875 16.40625 
Q 4.296875 26.03125 10.90625 30.515625 
Q 17.53125 35.015625 31.6875 35.015625 
L 42 35.015625 
L 42 36.375 
Q 42 40.53125 38.71875 42.453125 
Q 35.453125 44.390625 28.515625 44.390625 
Q 22.90625 44.390625 18.0625 43.265625 
Q 13.234375 42.140625 9.078125 39.890625 
L 9.078125 53.21875 
Q 14.703125 54.59375 20.359375 55.296875 
Q 26.03125 56 31.6875 56 
Q 46.484375 56 53.046875 50.171875 
Q 59.625 44.34375 59.625 31.203125 
" id="BitstreamVeraSans-Bold-61"/>
      <path d="M 44.390625 75.984375 
L 44.390625 64.5 
L 34.71875 64.5 
Q 31 64.5 29.53125 63.15625 
Q 28.078125 61.8125 28.078125 58.5 
L 28.078125 54.6875 
L 43.015625 54.6875 
L 43.015625 42.1875 
L 28.078125 42.1875 
L 28.078125 0 
L 10.59375 0 
L 10.59375 42.1875 
L 1.90625 42.1875 
L 1.90625 54.6875 
L 10.59375 54.6875 
L 10.59375 58.5 
Q 10.59375 67.4375 15.578125 71.703125 
Q 20.5625 75.984375 31 75.984375 
z
" id="BitstreamVeraSans-Bold-66"/>
      <path d="M 27.484375 70.21875 
L 27.484375 54.6875 
L 45.515625 54.6875 
L 45.515625 42.1875 
L 27.484375 42.1875 
L 27.484375 19 
Q 27.484375 15.1875 29 13.84375 
Q 30.515625 12.5 35.015625 12.5 
L 44 12.5 
L 44 0 
L 29 0 
Q 18.65625 0 14.328125 4.3125 
Q 10.015625 8.640625 10.015625 19 
L 10.015625 42.1875 
L 1.3125 42.1875 
L 1.3125 54.6875 
L 10.015625 54.6875 
L 10.015625 70.21875 
z
" id="BitstreamVeraSans-Bold-74"/>
      <path d="M 45.609375 46.6875 
L 45.609375 75.984375 
L 63.1875 75.984375 
L 63.1875 0 
L 45.609375 0 
L 45.609375 7.90625 
Q 42 3.078125 37.640625 0.828125 
Q 33.296875 -1.421875 27.59375 -1.421875 
Q 17.484375 -1.421875 10.984375 6.609375 
Q 4.5 14.65625 4.5 27.296875 
Q 4.5 39.9375 10.984375 47.96875 
Q 17.484375 56 27.59375 56 
Q 33.25 56 37.625 53.734375 
Q 42 51.46875 45.609375 46.6875 
M 34.078125 11.28125 
Q 39.703125 11.28125 42.65625 15.375 
Q 45.609375 19.484375 45.609375 27.296875 
Q 45.609375 35.109375 42.65625 39.203125 
Q 39.703125 43.3125 34.078125 43.3125 
Q 28.515625 43.3125 25.5625 39.203125 
Q 22.609375 35.109375 22.609375 27.296875 
Q 22.609375 19.484375 25.5625 15.375 
Q 28.515625 11.28125 34.078125 11.28125 
" id="BitstreamVeraSans-Bold-64"/>
      <path d="M 62.984375 27.484375 
L 62.984375 22.515625 
L 22.125 22.515625 
Q 22.75 16.359375 26.5625 13.28125 
Q 30.375 10.203125 37.203125 10.203125 
Q 42.71875 10.203125 48.5 11.84375 
Q 54.296875 13.484375 60.40625 16.796875 
L 60.40625 3.328125 
Q 54.203125 0.984375 48 -0.21875 
Q 41.796875 -1.421875 35.59375 -1.421875 
Q 20.75 -1.421875 12.515625 6.125 
Q 4.296875 13.671875 4.296875 27.296875 
Q 4.296875 40.671875 12.375 48.328125 
Q 20.453125 56 34.625 56 
Q 47.515625 56 55.25 48.234375 
Q 62.984375 40.484375 62.984375 27.484375 
M 45.015625 33.296875 
Q 45.015625 38.28125 42.109375 41.328125 
Q 39.203125 44.390625 34.515625 44.390625 
Q 29.4375 44.390625 26.265625 41.53125 
Q 23.09375 38.671875 22.3125 33.296875 
z
" id="BitstreamVeraSans-Bold-65"/>
      <path d="M 52.59375 52.984375 
L 52.59375 38.71875 
Q 49.03125 41.15625 45.4375 42.328125 
Q 41.84375 43.5 37.984375 43.5 
Q 30.671875 43.5 26.59375 39.234375 
Q 22.515625 34.96875 22.515625 27.296875 
Q 22.515625 19.625 26.59375 15.34375 
Q 30.671875 11.078125 37.984375 11.078125 
Q 42.09375 11.078125 45.78125 12.296875 
Q 49.46875 13.53125 52.59375 15.921875 
L 52.59375 1.609375 
Q 48.484375 0.09375 44.265625 -0.65625 
Q 40.046875 -1.421875 35.796875 -1.421875 
Q 21 -1.421875 12.640625 6.171875 
Q 4.296875 13.765625 4.296875 27.296875 
Q 4.296875 40.828125 12.640625 48.40625 
Q 21 56 35.796875 56 
Q 40.09375 56 44.265625 55.25 
Q 48.4375 54.5 52.59375 52.984375 
" id="BitstreamVeraSans-Bold-63"/>
      <path d="M 8.40625 75.984375 
L 25.875 75.984375 
L 25.875 0 
L 8.40625 0 
z
" id="BitstreamVeraSans-Bold-6c"/>
      <path d="M 34.421875 43.5 
Q 28.609375 43.5 25.5625 39.328125 
Q 22.515625 35.15625 22.515625 27.296875 
Q 22.515625 19.4375 25.5625 15.25 
Q 28.609375 11.078125 34.421875 11.078125 
Q 40.140625 11.078125 43.15625 15.25 
Q 46.1875 19.4375 46.1875 27.296875 
Q 46.1875 35.15625 43.15625 39.328125 
Q 40.140625 43.5 34.421875 43.5 
M 34.421875 56 
Q 48.53125 56 56.46875 48.375 
Q 64.40625 40.765625 64.40625 27.296875 
Q 64.40625 13.8125 56.46875 6.1875 
Q 48.53125 -1.421875 34.421875 -1.421875 
Q 20.265625 -1.421875 12.28125 6.1875 
Q 4.296875 13.8125 4.296875 27.296875 
Q 4.296875 40.765625 12.28125 48.375 
Q 20.265625 56 34.421875 56 
" id="BitstreamVeraSans-Bold-6f"/>
      <path d="M 59.078125 45.609375 
Q 62.40625 50.6875 66.96875 53.34375 
Q 71.53125 56 77 56 
Q 86.421875 56 91.359375 50.1875 
Q 96.296875 44.390625 96.296875 33.296875 
L 96.296875 0 
L 78.71875 0 
L 78.71875 28.515625 
Q 78.765625 29.15625 78.78125 29.828125 
Q 78.8125 30.515625 78.8125 31.78125 
Q 78.8125 37.59375 77.09375 40.203125 
Q 75.390625 42.828125 71.578125 42.828125 
Q 66.609375 42.828125 63.890625 38.71875 
Q 61.1875 34.625 61.078125 26.859375 
L 61.078125 0 
L 43.5 0 
L 43.5 28.515625 
Q 43.5 37.59375 41.9375 40.203125 
Q 40.375 42.828125 36.375 42.828125 
Q 31.34375 42.828125 28.609375 38.703125 
Q 25.875 34.578125 25.875 26.90625 
L 25.875 0 
L 8.296875 0 
L 8.296875 54.6875 
L 25.875 54.6875 
L 25.875 46.6875 
Q 29.109375 51.3125 33.28125 53.65625 
Q 37.453125 56 42.484375 56 
Q 48.140625 56 52.484375 53.265625 
Q 56.84375 50.53125 59.078125 45.609375 
" id="BitstreamVeraSans-Bold-6d"/>
      <path d="M 63.375 33.296875 
L 63.375 0 
L 45.796875 0 
L 45.796875 5.421875 
L 45.796875 25.484375 
Q 45.796875 32.5625 45.484375 35.25 
Q 45.171875 37.9375 44.390625 39.203125 
Q 43.359375 40.921875 41.59375 41.875 
Q 39.84375 42.828125 37.59375 42.828125 
Q 32.125 42.828125 29 38.59375 
Q 25.875 34.375 25.875 26.90625 
L 25.875 0 
L 8.40625 0 
L 8.40625 54.6875 
L 25.875 54.6875 
L 25.875 46.6875 
Q 29.828125 51.46875 34.265625 53.734375 
Q 38.71875 56 44.09375 56 
Q 53.5625 56 58.46875 50.1875 
Q 63.375 44.390625 63.375 33.296875 
" id="BitstreamVeraSans-Bold-6e"/>
     </defs>
     <g transform="translate(276.61265625 354.49171875)scale(0.13 -0.13)">
      <use xlink:href="#BitstreamVeraSans-Bold-65"/>
      <use x="67.822265625" xlink:href="#BitstreamVeraSans-Bold-70"/>
      <use x="139.404296875" xlink:href="#BitstreamVeraSans-Bold-73"/>
      <use x="198.92578125" xlink:href="#BitstreamVeraSans-Bold-69"/>
      <use x="233.203125" xlink:href="#BitstreamVeraSans-Bold-6c"/>
      <use x="267.48046875" xlink:href="#BitstreamVeraSans-Bold-6f"/>
      <use x="336.181640625" xlink:href="#BitstreamVeraSans-Bold-6e"/>
      <use x="407.373046875" xlink:href="#BitstreamVeraSans-Bold-20"/>
      <use x="442.1875" xlink:href="#BitstreamVeraSans-Bold-6f"/>
      <use x="510.888671875" xlink:href="#BitstreamVeraSans-Bold-66"/>
      <use x="554.39453125" xlink:href="#BitstreamVeraSans-Bold-20"/>
      <use x="589.208984375" xlink:href="#BitstreamVeraSans-Bold-64"/>
      <use x="660.791015625" xlink:href="#BitstreamVeraSans-Bold-6f"/>
      <use x="729.4921875" xlink:href="#BitstreamVeraSans-Bold-6d"/>
      <use x="833.69140625" xlink:href="#BitstreamVeraSans-Bold-61"/>
      <use x="901.171875" xlink:href="#BitstreamVeraSans-Bold-69"/>
      <use x="935.44921875" xlink:href="#BitstreamVeraSans-Bold-6e"/>
      <use x="1006.640625" xlink:href="#BitstreamVeraSans-Bold-20"/>
      <use x="1041.45507812" xlink:href="#BitstreamVeraSans-Bold-74"/>
      <use x="1089.2578125" xlink:href="#BitstreamVeraSans-Bold-79"/>
      <use x="1154.44335938" xlink:href="#BitstreamVeraSans-Bold-70"/>
      <use x="1226.02539062" xlink:href="#BitstreamVeraSans-Bold-69"/>
      <use x="1260.30273438" xlink:href="#BitstreamVeraSans-Bold-63"/>
      <use x="1319.58007812" xlink:href="#BitstreamVeraSans-Bold-61"/>
      <use x="1387.06054688" xlink:href="#BitstreamVeraSans-Bold-6c"/>
     </g>
    </g>
   </g>
   <g id="matplotlib.axis_2">
    <g id="ytick_1">
     <g id="line2d_16">
      <path clip-path="url(#pcc80853ad0)" d="M 90 295.2 
L 648 295.2 
" style="fill:none;stroke:#000000;stroke-dasharray:6.000000,6.000000;stroke-dashoffset:0.0;stroke-width:0.5;"/>
     </g>
     <g id="line2d_17">
      <defs>
       <path d="M 0 0 
L 4 0 
" id="m53eefefd9b" style="stroke:#000000;stroke-width:0.5;"/>
      </defs>
      <g>
       <use style="stroke:#000000;stroke-width:0.5;" x="90.0" xlink:href="#m53eefefd9b" y="295.2"/>
      </g>
     </g>
     <g id="line2d_18">
      <defs>
       <path d="M 0 0 
L -4 0 
" id="m50f1814e79" style="stroke:#000000;stroke-width:0.5;"/>
      </defs>
      <g>
       <use style="stroke:#000000;stroke-width:0.5;" x="648.0" xlink:href="#m50f1814e79" y="295.2"/>
      </g>
     </g>
     <g id="text_5">
      <!-- 0.32 -->
      <defs>
       <path d="M 46.578125 39.3125 
Q 53.953125 37.40625 57.78125 32.6875 
Q 61.625 27.984375 61.625 20.703125 
Q 61.625 9.859375 53.3125 4.21875 
Q 45.015625 -1.421875 29.109375 -1.421875 
Q 23.484375 -1.421875 17.84375 -0.515625 
Q 12.203125 0.390625 6.6875 2.203125 
L 6.6875 16.703125 
Q 11.96875 14.0625 17.15625 12.71875 
Q 22.359375 11.375 27.390625 11.375 
Q 34.859375 11.375 38.84375 13.953125 
Q 42.828125 16.546875 42.828125 21.390625 
Q 42.828125 26.375 38.75 28.9375 
Q 34.671875 31.5 26.703125 31.5 
L 19.1875 31.5 
L 19.1875 43.609375 
L 27.09375 43.609375 
Q 34.1875 43.609375 37.640625 45.828125 
Q 41.109375 48.046875 41.109375 52.59375 
Q 41.109375 56.78125 37.734375 59.078125 
Q 34.375 61.375 28.21875 61.375 
Q 23.6875 61.375 19.046875 60.34375 
Q 14.40625 59.328125 9.8125 57.328125 
L 9.8125 71.09375 
Q 15.375 72.65625 20.84375 73.4375 
Q 26.3125 74.21875 31.59375 74.21875 
Q 45.796875 74.21875 52.84375 69.546875 
Q 59.90625 64.890625 59.90625 55.515625 
Q 59.90625 49.125 56.53125 45.046875 
Q 53.171875 40.96875 46.578125 39.3125 
" id="BitstreamVeraSans-Bold-33"/>
       <path d="M 28.8125 13.8125 
L 60.890625 13.8125 
L 60.890625 0 
L 7.90625 0 
L 7.90625 13.8125 
L 34.515625 37.3125 
Q 38.09375 40.53125 39.796875 43.609375 
Q 41.5 46.6875 41.5 50 
Q 41.5 55.125 38.0625 58.25 
Q 34.625 61.375 28.90625 61.375 
Q 24.515625 61.375 19.28125 59.5 
Q 14.0625 57.625 8.109375 53.90625 
L 8.109375 69.921875 
Q 14.453125 72.015625 20.65625 73.109375 
Q 26.859375 74.21875 32.8125 74.21875 
Q 45.90625 74.21875 53.15625 68.453125 
Q 60.40625 62.703125 60.40625 52.390625 
Q 60.40625 46.4375 57.328125 41.28125 
Q 54.25 36.140625 44.390625 27.484375 
z
" id="BitstreamVeraSans-Bold-32"/>
      </defs>
      <g transform="translate(56.39375 298.51125)scale(0.12 -0.12)">
       <use xlink:href="#BitstreamVeraSans-Bold-30"/>
       <use x="69.580078125" xlink:href="#BitstreamVeraSans-Bold-2e"/>
       <use x="107.568359375" xlink:href="#BitstreamVeraSans-Bold-33"/>
       <use x="177.1484375" xlink:href="#BitstreamVeraSans-Bold-32"/>
      </g>
     </g>
    </g>
    <g id="ytick_2">
     <g id="line2d_19">
      <path clip-path="url(#pcc80853ad0)" d="M 90 237.6 
L 648 237.6 
" style="fill:none;stroke:#000000;stroke-dasharray:6.000000,6.000000;stroke-dashoffset:0.0;stroke-width:0.5;"/>
     </g>
     <g id="line2d_20">
      <g>
       <use style="stroke:#000000;stroke-width:0.5;" x="90.0" xlink:href="#m53eefefd9b" y="237.6"/>
      </g>
     </g>
     <g id="line2d_21">
      <g>
       <use style="stroke:#000000;stroke-width:0.5;" x="648.0" xlink:href="#m50f1814e79" y="237.6"/>
      </g>
     </g>
     <g id="text_6">
      <!-- 0.34 -->
      <defs>
       <path d="M 36.8125 57.421875 
L 16.21875 26.90625 
L 36.8125 26.90625 
z
M 33.6875 72.90625 
L 54.59375 72.90625 
L 54.59375 26.90625 
L 64.984375 26.90625 
L 64.984375 13.28125 
L 54.59375 13.28125 
L 54.59375 0 
L 36.8125 0 
L 36.8125 13.28125 
L 4.5 13.28125 
L 4.5 29.390625 
z
" id="BitstreamVeraSans-Bold-34"/>
      </defs>
      <g transform="translate(56.39375 240.91125)scale(0.12 -0.12)">
       <use xlink:href="#BitstreamVeraSans-Bold-30"/>
       <use x="69.580078125" xlink:href="#BitstreamVeraSans-Bold-2e"/>
       <use x="107.568359375" xlink:href="#BitstreamVeraSans-Bold-33"/>
       <use x="177.1484375" xlink:href="#BitstreamVeraSans-Bold-34"/>
      </g>
     </g>
    </g>
    <g id="ytick_3">
     <g id="line2d_22">
      <path clip-path="url(#pcc80853ad0)" d="M 90 180 
L 648 180 
" style="fill:none;stroke:#000000;stroke-dasharray:6.000000,6.000000;stroke-dashoffset:0.0;stroke-width:0.5;"/>
     </g>
     <g id="line2d_23">
      <g>
       <use style="stroke:#000000;stroke-width:0.5;" x="90.0" xlink:href="#m53eefefd9b" y="180.0"/>
      </g>
     </g>
     <g id="line2d_24">
      <g>
       <use style="stroke:#000000;stroke-width:0.5;" x="648.0" xlink:href="#m50f1814e79" y="180.0"/>
      </g>
     </g>
     <g id="text_7">
      <!-- 0.36 -->
      <g transform="translate(56.39375 183.31125)scale(0.12 -0.12)">
       <use xlink:href="#BitstreamVeraSans-Bold-30"/>
       <use x="69.580078125" xlink:href="#BitstreamVeraSans-Bold-2e"/>
       <use x="107.568359375" xlink:href="#BitstreamVeraSans-Bold-33"/>
       <use x="177.1484375" xlink:href="#BitstreamVeraSans-Bold-36"/>
      </g>
     </g>
    </g>
    <g id="ytick_4">
     <g id="line2d_25">
      <path clip-path="url(#pcc80853ad0)" d="M 90 122.4 
L 648 122.4 
" style="fill:none;stroke:#000000;stroke-dasharray:6.000000,6.000000;stroke-dashoffset:0.0;stroke-width:0.5;"/>
     </g>
     <g id="line2d_26">
      <g>
       <use style="stroke:#000000;stroke-width:0.5;" x="90.0" xlink:href="#m53eefefd9b" y="122.4"/>
      </g>
     </g>
     <g id="line2d_27">
      <g>
       <use style="stroke:#000000;stroke-width:0.5;" x="648.0" xlink:href="#m50f1814e79" y="122.4"/>
      </g>
     </g>
     <g id="text_8">
      <!-- 0.38 -->
      <defs>
       <path d="M 34.8125 32.625 
Q 29.546875 32.625 26.703125 29.734375 
Q 23.875 26.859375 23.875 21.484375 
Q 23.875 16.109375 26.703125 13.25 
Q 29.546875 10.40625 34.8125 10.40625 
Q 40.046875 10.40625 42.828125 13.25 
Q 45.609375 16.109375 45.609375 21.484375 
Q 45.609375 26.90625 42.828125 29.765625 
Q 40.046875 32.625 34.8125 32.625 
M 21.09375 38.8125 
Q 14.453125 40.828125 11.078125 44.96875 
Q 7.71875 49.125 7.71875 55.328125 
Q 7.71875 64.546875 14.59375 69.375 
Q 21.484375 74.21875 34.8125 74.21875 
Q 48.046875 74.21875 54.921875 69.40625 
Q 61.8125 64.59375 61.8125 55.328125 
Q 61.8125 49.125 58.421875 44.96875 
Q 55.03125 40.828125 48.390625 38.8125 
Q 55.8125 36.765625 59.59375 32.15625 
Q 63.375 27.546875 63.375 20.515625 
Q 63.375 9.671875 56.171875 4.125 
Q 48.96875 -1.421875 34.8125 -1.421875 
Q 20.609375 -1.421875 13.359375 4.125 
Q 6.109375 9.671875 6.109375 20.515625 
Q 6.109375 27.546875 9.890625 32.15625 
Q 13.671875 36.765625 21.09375 38.8125 
M 25.484375 53.421875 
Q 25.484375 49.078125 27.90625 46.734375 
Q 30.328125 44.390625 34.8125 44.390625 
Q 39.203125 44.390625 41.59375 46.734375 
Q 44 49.078125 44 53.421875 
Q 44 57.765625 41.59375 60.078125 
Q 39.203125 62.40625 34.8125 62.40625 
Q 30.328125 62.40625 27.90625 60.0625 
Q 25.484375 57.71875 25.484375 53.421875 
" id="BitstreamVeraSans-Bold-38"/>
      </defs>
      <g transform="translate(56.39375 125.71125)scale(0.12 -0.12)">
       <use xlink:href="#BitstreamVeraSans-Bold-30"/>
       <use x="69.580078125" xlink:href="#BitstreamVeraSans-Bold-2e"/>
       <use x="107.568359375" xlink:href="#BitstreamVeraSans-Bold-33"/>
       <use x="177.1484375" xlink:href="#BitstreamVeraSans-Bold-38"/>
      </g>
     </g>
    </g>
    <g id="ytick_5">
     <g id="line2d_28">
      <path clip-path="url(#pcc80853ad0)" d="M 90 64.8 
L 648 64.8 
" style="fill:none;stroke:#000000;stroke-dasharray:6.000000,6.000000;stroke-dashoffset:0.0;stroke-width:0.5;"/>
     </g>
     <g id="line2d_29">
      <g>
       <use style="stroke:#000000;stroke-width:0.5;" x="90.0" xlink:href="#m53eefefd9b" y="64.8"/>
      </g>
     </g>
     <g id="line2d_30">
      <g>
       <use style="stroke:#000000;stroke-width:0.5;" x="648.0" xlink:href="#m50f1814e79" y="64.8"/>
      </g>
     </g>
     <g id="text_9">
      <!-- 0.40 -->
      <g transform="translate(56.39375 68.11125)scale(0.12 -0.12)">
       <use xlink:href="#BitstreamVeraSans-Bold-30"/>
       <use x="69.580078125" xlink:href="#BitstreamVeraSans-Bold-2e"/>
       <use x="107.568359375" xlink:href="#BitstreamVeraSans-Bold-34"/>
       <use x="177.1484375" xlink:href="#BitstreamVeraSans-Bold-30"/>
      </g>
     </g>
    </g>
    <g id="text_10">
     <!-- Accuracy -->
     <defs>
      <path d="M 53.421875 13.28125 
L 24.03125 13.28125 
L 19.390625 0 
L 0.484375 0 
L 27.484375 72.90625 
L 49.90625 72.90625 
L 76.90625 0 
L 58.015625 0 
z
M 28.71875 26.8125 
L 48.6875 26.8125 
L 38.71875 55.8125 
z
" id="BitstreamVeraSans-Bold-41"/>
      <path d="M 49.03125 39.796875 
Q 46.734375 40.875 44.453125 41.375 
Q 42.1875 41.890625 39.890625 41.890625 
Q 33.15625 41.890625 29.515625 37.5625 
Q 25.875 33.25 25.875 25.203125 
L 25.875 0 
L 8.40625 0 
L 8.40625 54.6875 
L 25.875 54.6875 
L 25.875 45.703125 
Q 29.25 51.078125 33.609375 53.53125 
Q 37.984375 56 44.09375 56 
Q 44.96875 56 45.984375 55.921875 
Q 47.015625 55.859375 48.96875 55.609375 
z
" id="BitstreamVeraSans-Bold-72"/>
      <path d="M 7.8125 21.296875 
L 7.8125 54.6875 
L 25.390625 54.6875 
L 25.390625 49.21875 
Q 25.390625 44.78125 25.34375 38.0625 
Q 25.296875 31.34375 25.296875 29.109375 
Q 25.296875 22.515625 25.640625 19.609375 
Q 25.984375 16.703125 26.8125 15.375 
Q 27.875 13.671875 29.609375 12.734375 
Q 31.34375 11.8125 33.59375 11.8125 
Q 39.0625 11.8125 42.1875 16.015625 
Q 45.3125 20.21875 45.3125 27.6875 
L 45.3125 54.6875 
L 62.796875 54.6875 
L 62.796875 0 
L 45.3125 0 
L 45.3125 7.90625 
Q 41.359375 3.125 36.9375 0.84375 
Q 32.515625 -1.421875 27.203125 -1.421875 
Q 17.71875 -1.421875 12.765625 4.390625 
Q 7.8125 10.203125 7.8125 21.296875 
" id="BitstreamVeraSans-Bold-75"/>
     </defs>
     <g transform="translate(48.58859375 213.04640625)rotate(-90.0)scale(0.13 -0.13)">
      <use xlink:href="#BitstreamVeraSans-Bold-41"/>
      <use x="77.392578125" xlink:href="#BitstreamVeraSans-Bold-63"/>
      <use x="136.669921875" xlink:href="#BitstreamVeraSans-Bold-63"/>
      <use x="195.947265625" xlink:href="#BitstreamVeraSans-Bold-75"/>
      <use x="267.138671875" xlink:href="#BitstreamVeraSans-Bold-72"/>
      <use x="316.455078125" xlink:href="#BitstreamVeraSans-Bold-61"/>
      <use x="383.935546875" xlink:href="#BitstreamVeraSans-Bold-63"/>
      <use x="443.212890625" xlink:href="#BitstreamVeraSans-Bold-79"/>
     </g>
    </g>
   </g>
   <g id="text_11">
    <!-- Accuracy of Classifying(k=100) -->
    <defs>
     <path d="M 67 4 
Q 61.8125 1.3125 56.203125 -0.046875 
Q 50.59375 -1.421875 44.484375 -1.421875 
Q 26.265625 -1.421875 15.625 8.765625 
Q 4.984375 18.953125 4.984375 36.375 
Q 4.984375 53.859375 15.625 64.03125 
Q 26.265625 74.21875 44.484375 74.21875 
Q 50.59375 74.21875 56.203125 72.84375 
Q 61.8125 71.484375 67 68.796875 
L 67 53.71875 
Q 61.765625 57.28125 56.6875 58.9375 
Q 51.609375 60.59375 46 60.59375 
Q 35.9375 60.59375 30.171875 54.140625 
Q 24.421875 47.703125 24.421875 36.375 
Q 24.421875 25.09375 30.171875 18.640625 
Q 35.9375 12.203125 46 12.203125 
Q 51.609375 12.203125 56.6875 13.859375 
Q 61.765625 15.53125 67 19.09375 
z
" id="BitstreamVeraSans-Bold-43"/>
     <path d="M 45.609375 9.28125 
Q 42 4.5 37.640625 2.25 
Q 33.296875 0 27.59375 0 
Q 17.578125 0 11.03125 7.875 
Q 4.5 15.765625 4.5 27.984375 
Q 4.5 40.234375 11.03125 48.0625 
Q 17.578125 55.90625 27.59375 55.90625 
Q 33.296875 55.90625 37.640625 53.65625 
Q 42 51.421875 45.609375 46.578125 
L 45.609375 54.6875 
L 63.1875 54.6875 
L 63.1875 5.515625 
Q 63.1875 -7.671875 54.859375 -14.625 
Q 46.53125 -21.578125 30.71875 -21.578125 
Q 25.59375 -21.578125 20.796875 -20.796875 
Q 16.015625 -20.015625 11.1875 -18.40625 
L 11.1875 -4.78125 
Q 15.765625 -7.421875 20.15625 -8.71875 
Q 24.5625 -10.015625 29 -10.015625 
Q 37.59375 -10.015625 41.59375 -6.25 
Q 45.609375 -2.484375 45.609375 5.515625 
z
M 34.078125 43.3125 
Q 28.65625 43.3125 25.625 39.296875 
Q 22.609375 35.296875 22.609375 27.984375 
Q 22.609375 20.453125 25.53125 16.578125 
Q 28.46875 12.703125 34.078125 12.703125 
Q 39.546875 12.703125 42.578125 16.703125 
Q 45.609375 20.703125 45.609375 27.984375 
Q 45.609375 35.296875 42.578125 39.296875 
Q 39.546875 43.3125 34.078125 43.3125 
" id="BitstreamVeraSans-Bold-67"/>
     <path d="M 37.703125 -13.1875 
L 23.1875 -13.1875 
Q 15.71875 -1.125 12.15625 9.734375 
Q 8.59375 20.609375 8.59375 31.296875 
Q 8.59375 42 12.171875 52.953125 
Q 15.765625 63.921875 23.1875 75.875 
L 37.703125 75.875 
Q 31.453125 64.3125 28.328125 53.25 
Q 25.203125 42.1875 25.203125 31.390625 
Q 25.203125 20.609375 28.296875 9.515625 
Q 31.390625 -1.5625 37.703125 -13.1875 
" id="BitstreamVeraSans-Bold-28"/>
     <path d="M 8.015625 -13.1875 
Q 14.265625 -1.5625 17.390625 9.515625 
Q 20.515625 20.609375 20.515625 31.390625 
Q 20.515625 42.1875 17.390625 53.25 
Q 14.265625 64.3125 8.015625 75.875 
L 22.515625 75.875 
Q 29.9375 63.921875 33.515625 52.953125 
Q 37.109375 42 37.109375 31.296875 
Q 37.109375 20.609375 33.546875 9.734375 
Q 29.984375 -1.125 22.515625 -13.1875 
z
" id="BitstreamVeraSans-Bold-29"/>
     <path d="M 10.59375 48.1875 
L 73.1875 48.1875 
L 73.1875 36.71875 
L 10.59375 36.71875 
z
M 10.59375 25.984375 
L 73.1875 25.984375 
L 73.1875 14.40625 
L 10.59375 14.40625 
z
" id="BitstreamVeraSans-Bold-3d"/>
     <path d="M 8.40625 75.984375 
L 25.875 75.984375 
L 25.875 34.625 
L 46 54.6875 
L 66.3125 54.6875 
L 39.59375 29.59375 
L 68.40625 0 
L 47.21875 0 
L 25.875 22.796875 
L 25.875 0 
L 8.40625 0 
z
" id="BitstreamVeraSans-Bold-6b"/>
    </defs>
    <g transform="translate(263.7075 31.0)scale(0.12 -0.12)">
     <use xlink:href="#BitstreamVeraSans-Bold-41"/>
     <use x="77.392578125" xlink:href="#BitstreamVeraSans-Bold-63"/>
     <use x="136.669921875" xlink:href="#BitstreamVeraSans-Bold-63"/>
     <use x="195.947265625" xlink:href="#BitstreamVeraSans-Bold-75"/>
     <use x="267.138671875" xlink:href="#BitstreamVeraSans-Bold-72"/>
     <use x="316.455078125" xlink:href="#BitstreamVeraSans-Bold-61"/>
     <use x="383.935546875" xlink:href="#BitstreamVeraSans-Bold-63"/>
     <use x="443.212890625" xlink:href="#BitstreamVeraSans-Bold-79"/>
     <use x="508.3984375" xlink:href="#BitstreamVeraSans-Bold-20"/>
     <use x="543.212890625" xlink:href="#BitstreamVeraSans-Bold-6f"/>
     <use x="611.9140625" xlink:href="#BitstreamVeraSans-Bold-66"/>
     <use x="655.419921875" xlink:href="#BitstreamVeraSans-Bold-20"/>
     <use x="690.234375" xlink:href="#BitstreamVeraSans-Bold-43"/>
     <use x="763.623046875" xlink:href="#BitstreamVeraSans-Bold-6c"/>
     <use x="797.900390625" xlink:href="#BitstreamVeraSans-Bold-61"/>
     <use x="865.380859375" xlink:href="#BitstreamVeraSans-Bold-73"/>
     <use x="924.90234375" xlink:href="#BitstreamVeraSans-Bold-73"/>
     <use x="984.423828125" xlink:href="#BitstreamVeraSans-Bold-69"/>
     <use x="1018.70117188" xlink:href="#BitstreamVeraSans-Bold-66"/>
     <use x="1062.20703125" xlink:href="#BitstreamVeraSans-Bold-79"/>
     <use x="1127.39257812" xlink:href="#BitstreamVeraSans-Bold-69"/>
     <use x="1161.66992188" xlink:href="#BitstreamVeraSans-Bold-6e"/>
     <use x="1232.86132812" xlink:href="#BitstreamVeraSans-Bold-67"/>
     <use x="1304.44335938" xlink:href="#BitstreamVeraSans-Bold-28"/>
     <use x="1350.14648438" xlink:href="#BitstreamVeraSans-Bold-6b"/>
     <use x="1416.65039062" xlink:href="#BitstreamVeraSans-Bold-3d"/>
     <use x="1500.43945312" xlink:href="#BitstreamVeraSans-Bold-31"/>
     <use x="1570.01953125" xlink:href="#BitstreamVeraSans-Bold-30"/>
     <use x="1639.59960938" xlink:href="#BitstreamVeraSans-Bold-30"/>
     <use x="1709.1796875" xlink:href="#BitstreamVeraSans-Bold-29"/>
    </g>
   </g>
   <g id="legend_1">
    <g id="patch_5">
     <path d="M 517.936875 316.8 
L 640.8 316.8 
L 640.8 253.153125 
L 517.936875 253.153125 
z
" style="fill:#ffffff;stroke:#000000;stroke-linejoin:miter;"/>
    </g>
    <g id="line2d_31">
     <path d="M 523.696875 263.953125 
L 552.496875 263.953125 
" style="fill:none;stroke:#000000;stroke-linecap:square;stroke-width:1.5;"/>
    </g>
    <g id="line2d_32"/>
    <g id="text_12">
     <!-- SA -->
     <defs>
      <path d="M 59.90625 70.609375 
L 59.90625 55.171875 
Q 53.90625 57.859375 48.1875 59.21875 
Q 42.484375 60.59375 37.40625 60.59375 
Q 30.671875 60.59375 27.4375 58.734375 
Q 24.21875 56.890625 24.21875 52.984375 
Q 24.21875 50.046875 26.390625 48.40625 
Q 28.5625 46.78125 34.28125 45.609375 
L 42.28125 44 
Q 54.4375 41.546875 59.5625 36.5625 
Q 64.703125 31.59375 64.703125 22.40625 
Q 64.703125 10.359375 57.546875 4.46875 
Q 50.390625 -1.421875 35.6875 -1.421875 
Q 28.765625 -1.421875 21.78125 -0.09375 
Q 14.796875 1.21875 7.8125 3.8125 
L 7.8125 19.671875 
Q 14.796875 15.96875 21.3125 14.078125 
Q 27.828125 12.203125 33.890625 12.203125 
Q 40.046875 12.203125 43.3125 14.25 
Q 46.578125 16.3125 46.578125 20.125 
Q 46.578125 23.53125 44.359375 25.390625 
Q 42.140625 27.25 35.5 28.71875 
L 28.21875 30.328125 
Q 17.28125 32.671875 12.21875 37.796875 
Q 7.171875 42.921875 7.171875 51.609375 
Q 7.171875 62.5 14.203125 68.359375 
Q 21.234375 74.21875 34.421875 74.21875 
Q 40.4375 74.21875 46.78125 73.3125 
Q 53.125 72.40625 59.90625 70.609375 
" id="BitstreamVeraSans-Bold-53"/>
     </defs>
     <g transform="translate(564.016875 268.993125)scale(0.12 -0.12)">
      <use xlink:href="#BitstreamVeraSans-Bold-53"/>
      <use x="72.021484375" xlink:href="#BitstreamVeraSans-Bold-41"/>
     </g>
    </g>
    <g id="line2d_33">
     <path d="M 523.696875 283.72875 
L 552.496875 283.72875 
" style="fill:none;stroke:#000000;stroke-dasharray:6.000000,6.000000;stroke-dashoffset:0.0;stroke-width:1.5;"/>
    </g>
    <g id="line2d_34"/>
    <g id="text_13">
     <!-- K-Medoids -->
     <defs>
      <path d="M 9.1875 72.90625 
L 27.984375 72.90625 
L 27.984375 46.296875 
L 55.078125 72.90625 
L 76.90625 72.90625 
L 41.796875 38.375 
L 80.515625 0 
L 56.984375 0 
L 27.984375 28.71875 
L 27.984375 0 
L 9.1875 0 
z
" id="BitstreamVeraSans-Bold-4b"/>
      <path d="M 9.1875 72.90625 
L 33.109375 72.90625 
L 49.703125 33.890625 
L 66.40625 72.90625 
L 90.28125 72.90625 
L 90.28125 0 
L 72.515625 0 
L 72.515625 53.328125 
L 55.71875 14.015625 
L 43.796875 14.015625 
L 27 53.328125 
L 27 0 
L 9.1875 0 
z
" id="BitstreamVeraSans-Bold-4d"/>
      <path d="M 5.421875 35.890625 
L 36.078125 35.890625 
L 36.078125 21.6875 
L 5.421875 21.6875 
z
" id="BitstreamVeraSans-Bold-2d"/>
     </defs>
     <g transform="translate(564.016875 288.76875)scale(0.12 -0.12)">
      <use xlink:href="#BitstreamVeraSans-Bold-4b"/>
      <use x="77.365234375" xlink:href="#BitstreamVeraSans-Bold-2d"/>
      <use x="118.869140625" xlink:href="#BitstreamVeraSans-Bold-4d"/>
      <use x="218.380859375" xlink:href="#BitstreamVeraSans-Bold-65"/>
      <use x="286.203125" xlink:href="#BitstreamVeraSans-Bold-64"/>
      <use x="357.78515625" xlink:href="#BitstreamVeraSans-Bold-6f"/>
      <use x="426.486328125" xlink:href="#BitstreamVeraSans-Bold-69"/>
      <use x="460.763671875" xlink:href="#BitstreamVeraSans-Bold-64"/>
      <use x="532.345703125" xlink:href="#BitstreamVeraSans-Bold-73"/>
     </g>
    </g>
    <g id="line2d_35">
     <path d="M 523.696875 303.504375 
L 552.496875 303.504375 
" style="fill:none;stroke:#ff0000;stroke-linecap:square;stroke-width:1.5;"/>
    </g>
    <g id="line2d_36"/>
    <g id="text_14">
     <!-- GB -->
     <defs>
      <path d="M 38.375 44.671875 
Q 42.828125 44.671875 45.109375 46.625 
Q 47.40625 48.578125 47.40625 52.390625 
Q 47.40625 56.15625 45.109375 58.125 
Q 42.828125 60.109375 38.375 60.109375 
L 27.984375 60.109375 
L 27.984375 44.671875 
z
M 39.015625 12.796875 
Q 44.671875 12.796875 47.53125 15.1875 
Q 50.390625 17.578125 50.390625 22.40625 
Q 50.390625 27.15625 47.5625 29.515625 
Q 44.734375 31.890625 39.015625 31.890625 
L 27.984375 31.890625 
L 27.984375 12.796875 
z
M 56.5 39.015625 
Q 62.546875 37.25 65.859375 32.515625 
Q 69.1875 27.78125 69.1875 20.90625 
Q 69.1875 10.359375 62.0625 5.171875 
Q 54.9375 0 40.375 0 
L 9.1875 0 
L 9.1875 72.90625 
L 37.40625 72.90625 
Q 52.59375 72.90625 59.40625 68.3125 
Q 66.21875 63.71875 66.21875 53.609375 
Q 66.21875 48.296875 63.71875 44.5625 
Q 61.234375 40.828125 56.5 39.015625 
" id="BitstreamVeraSans-Bold-42"/>
      <path d="M 74.703125 5.421875 
Q 67.671875 2 60.109375 0.28125 
Q 52.546875 -1.421875 44.484375 -1.421875 
Q 26.265625 -1.421875 15.625 8.765625 
Q 4.984375 18.953125 4.984375 36.375 
Q 4.984375 54 15.8125 64.109375 
Q 26.65625 74.21875 45.515625 74.21875 
Q 52.78125 74.21875 59.4375 72.84375 
Q 66.109375 71.484375 72.015625 68.796875 
L 72.015625 53.71875 
Q 65.921875 57.171875 59.890625 58.875 
Q 53.859375 60.59375 47.796875 60.59375 
Q 36.578125 60.59375 30.5 54.3125 
Q 24.421875 48.046875 24.421875 36.375 
Q 24.421875 24.8125 30.28125 18.5 
Q 36.140625 12.203125 46.921875 12.203125 
Q 49.859375 12.203125 52.375 12.5625 
Q 54.890625 12.9375 56.890625 13.71875 
L 56.890625 27.875 
L 45.40625 27.875 
L 45.40625 40.484375 
L 74.703125 40.484375 
z
" id="BitstreamVeraSans-Bold-47"/>
     </defs>
     <g transform="translate(564.016875 308.544375)scale(0.12 -0.12)">
      <use xlink:href="#BitstreamVeraSans-Bold-47"/>
      <use x="82.080078125" xlink:href="#BitstreamVeraSans-Bold-42"/>
     </g>
    </g>
   </g>
  </g>
 </g>
 <defs>
  <clipPath id="pcc80853ad0">
   <rect height="288.0" width="558.0" x="90.0" y="36.0"/>
  </clipPath>
 </defs>
</svg>
